# Blender v3.0.1 OBJ File: ''
# www.blender.org
mtllib pared_centro.mtl
o pared_medio
v -128.000031 4.500006 -111.999969
v -128.000000 2.749945 -109.999977
v 128.000015 4.500006 -111.999992
v 128.000031 2.749945 -109.999985
v 128.000031 0.000000 -109.999992
v 128.000031 2.749945 -109.999985
v -128.000031 0.000000 -109.999962
v -128.000000 2.749945 -109.999977
v 128.000031 253.686401 -109.999992
v -128.000031 253.686401 -109.999962
v 128.000031 252.000046 -111.999992
v -128.000031 252.000046 -111.999962
v 128.000031 256.000061 -109.999992
v -128.000031 256.000061 -109.999962
v 128.000031 253.686401 -109.999992
v -128.000031 253.686401 -109.999962
v 128.000015 159.999969 -111.999992
v -128.000031 159.999985 -111.999962
v 128.000031 157.500015 -109.999985
v -128.000031 157.500015 -109.999962
v -128.000031 149.500000 -109.999962
v -128.000031 148.000046 -111.999962
v 128.000031 149.500000 -109.999969
v 128.000015 148.000046 -111.999985
v -128.000031 157.500015 -109.999962
v -128.000031 149.500000 -109.999962
v 128.000031 157.500015 -109.999985
v 128.000031 149.500000 -109.999969
v 128.000015 159.999969 -111.999992
v 128.000031 252.000046 -111.999992
v -128.000031 159.999985 -111.999962
v -128.000031 252.000046 -111.999962
v 128.000015 4.500006 -111.999992
v 128.000015 32.000000 -111.999992
v -128.000031 4.500006 -111.999969
v -128.000031 32.000008 -111.999962
v 128.000015 148.000046 -111.999985
v -128.000031 148.000046 -111.999962
v -127.999985 256.000031 128.000000
v -128.000000 256.000000 -47.999996
v 128.000031 256.000031 128.000000
v 128.000015 256.000000 -48.000000
v -128.000015 256.000031 -111.999969
v 128.000015 256.000031 -111.999992
v 128.000031 0.000000 128.000000
v 128.000015 0.000000 -48.000000
v -128.000000 0.000000 128.000000
v -128.000015 0.000000 -48.000015
v 128.000015 0.000000 -112.000000
v -128.000031 0.000000 -111.999969
vt 0.000000 0.020491
vt 0.000000 0.012122
vt 1.000000 0.020491
vt 1.000000 0.012122
vt 1.000000 0.000003
vt 1.000000 0.012122
vt 0.000000 0.000003
vt 0.000000 0.012122
vt 1.000000 0.008705
vt 0.000000 0.008705
vt 1.000000 0.000335
vt 0.000000 0.000335
vt 1.000000 0.020824
vt 0.000000 0.020824
vt 1.000000 0.008705
vt 0.000000 0.008705
vt 0.000000 0.714768
vt 1.000000 0.714768
vt 0.000000 0.702537
vt 1.000000 0.702537
vt 1.000000 0.668965
vt 1.000000 0.660070
vt 0.000000 0.668965
vt 0.000000 0.660070
vt 1.000000 0.702537
vt 1.000000 0.668965
vt 0.000000 0.702537
vt 0.000000 0.668965
vt 1.000000 0.719530
vt 1.000000 0.999996
vt 0.000000 0.719530
vt 0.000000 0.999996
vt 1.000000 0.020478
vt 1.000000 0.143416
vt 0.000000 0.020478
vt 0.000000 0.143416
vt 1.000000 0.660070
vt 0.000000 0.660070
vt 0.000000 1.000001
vt 0.000000 0.309934
vt 1.000000 1.000001
vt 1.000000 0.309934
vt 0.000000 0.059001
vt 1.000000 0.059001
vt 1.000000 0.000024
vt 1.000000 0.687563
vt 0.000000 0.000024
vt 0.000000 0.687563
vt 1.000000 0.937577
vt 0.000000 0.937577
vn 0.0000 0.7526 0.6585
vn 0.0000 -0.0000 1.0000
vn 0.0000 -0.7645 0.6446
vn 0.0000 0.6247 0.7809
vn 0.0000 -0.8000 0.6000
vn 0.0000 -1.0000 0.0000
vn 0.0000 1.0000 0.0000
usemtl Material.004
s 1
f 1/1/1 2/2/1 3/3/1
f 2/2/1 4/4/1 3/3/1
f 5/5/2 6/6/2 7/7/2
f 6/6/2 8/8/2 7/7/2
f 9/9/3 10/10/3 11/11/3
f 10/10/3 12/12/3 11/11/3
f 13/13/2 14/14/2 15/15/2
f 14/14/2 16/16/2 15/15/2
f 17/17/4 18/18/4 19/19/4
f 18/18/4 20/20/4 19/19/4
f 21/21/5 22/22/5 23/23/5
f 22/22/5 24/24/5 23/23/5
f 25/25/2 26/26/2 27/27/2
f 26/26/2 28/28/2 27/27/2
f 29/29/2 30/30/2 31/31/2
f 30/30/2 32/32/2 31/31/2
f 33/33/2 34/34/2 35/35/2
f 35/35/2 34/34/2 36/36/2
f 34/34/2 37/37/2 36/36/2
f 36/36/2 37/37/2 38/38/2
usemtl Material.005
f 39/39/6 40/40/6 41/41/6
f 41/41/6 40/40/6 42/42/6
f 40/40/6 43/43/6 42/42/6
f 42/42/6 43/43/6 44/44/6
usemtl Material.00002d.001
f 45/45/7 46/46/7 47/47/7
f 47/47/7 46/46/7 48/48/7
f 46/46/7 49/49/7 48/48/7
f 48/48/7 49/49/7 50/50/7
