# Blender v3.0.1 OBJ File: ''
# www.blender.org
mtllib obus.mtl
o obus
v -0.143989 -0.249395 0.000000
v 0.287976 0.000000 0.000000
v -0.143989 0.249396 0.000000
v 0.249395 -0.143988 0.000000
v 0.143988 -0.249395 0.000000
v -0.000001 -0.287977 0.000000
v -0.000001 0.287977 0.000000
v 0.143988 0.249396 0.000000
v 0.249395 0.143989 0.000000
v -0.249396 0.143989 0.000000
v -0.287978 0.000000 0.000000
v -0.249396 -0.143988 0.000000
v 0.163720 -0.283572 -1.784801
v 0.190575 -0.330087 -1.328050
v -0.000001 -0.327441 -1.784801
v -0.000001 -0.381152 -1.328050
v 0.221962 -0.128150 -2.239806
v 0.283572 -0.163720 -1.784801
v 0.128149 -0.221962 -2.239806
v -0.000001 -0.256300 -2.239806
v 0.024642 0.000534 -3.006020
v 0.156682 0.000182 -2.633335
v 0.021341 -0.011787 -3.006020
v 0.135698 -0.078164 -2.633308
v 0.012321 -0.020808 -3.006020
v 0.078349 -0.135523 -2.633288
v -0.000001 -0.024109 -3.006020
v -0.000001 -0.156520 -2.633281
v 0.256299 0.000000 -2.239806
v 0.135682 0.078519 -2.633362
v 0.221962 0.128150 -2.239806
v 0.078332 0.135859 -2.633381
v 0.128149 0.221963 -2.239806
v -0.000001 0.156846 -2.633389
v -0.000001 0.256301 -2.239806
v 0.021341 0.012856 -3.006020
v 0.012321 0.021876 -3.006020
v -0.000001 0.025178 -3.006020
v -0.078334 0.135859 -2.633381
v -0.012323 0.021876 -3.006020
v -0.135684 0.078519 -2.633362
v -0.021343 0.012856 -3.006020
v -0.156684 0.000182 -2.633335
v -0.024644 0.000534 -3.006020
v -0.135700 -0.078164 -2.633308
v -0.021343 -0.011787 -3.006020
v -0.078351 -0.135523 -2.633288
v -0.012323 -0.020808 -3.006020
v -0.000001 -0.156520 -2.633281
v -0.000001 -0.024109 -3.006020
v -0.128151 0.221963 -2.239806
v -0.221964 0.128150 -2.239806
v -0.256301 0.000000 -2.239806
v -0.221964 -0.128150 -2.239806
v -0.128151 -0.221962 -2.239806
v -0.000001 -0.256300 -2.239806
v -0.000001 -0.327441 -1.784801
v -0.163721 -0.283572 -1.784801
v -0.000001 -0.381152 -1.328050
v -0.190577 -0.330087 -1.328050
v -0.283573 -0.163720 -1.784801
v -0.330088 -0.190576 -1.328050
v -0.327442 0.000000 -1.784801
v -0.283573 0.163721 -1.784801
v -0.163721 0.283573 -1.784801
v -0.000001 0.327441 -1.784801
v 0.163720 0.283573 -1.784801
v 0.283572 0.163721 -1.784801
v 0.327440 0.000000 -1.784801
v -0.381153 0.000000 -1.328050
v -0.330088 0.190576 -1.328050
v -0.190577 0.330088 -1.328050
v -0.000001 0.381152 -1.328050
v 0.190575 0.330087 -1.328050
v 0.330087 0.190576 -1.328050
v 0.381151 0.000000 -1.328050
v 0.330087 -0.190576 -1.328050
v -0.000001 -0.381152 -1.328050
v -0.000001 -0.381152 -0.750650
v -0.190577 -0.330087 -0.750650
v -0.330088 -0.190576 -0.750650
v -0.381153 0.000000 -0.750650
v -0.330088 0.190576 -0.750650
v -0.190577 0.330088 -0.750650
v -0.000001 0.381152 -0.750650
v 0.190575 0.330087 -0.750650
v 0.330087 0.190576 -0.750650
v 0.381151 0.000000 -0.750650
v 0.330087 -0.190576 -0.750650
v 0.190575 -0.330087 -0.750650
v -0.000001 -0.381152 -0.750650
v -0.012323 -0.020808 -3.006020
v -0.021343 -0.011787 -3.006020
v -0.000001 -0.024109 -3.006020
v -0.024644 0.000534 -3.006020
v -0.021343 0.012856 -3.006020
v -0.012323 0.021876 -3.006020
v -0.000001 0.025178 -3.006020
v 0.012321 0.021876 -3.006020
v 0.021341 0.012856 -3.006020
v 0.024642 0.000534 -3.006020
v 0.021341 -0.011787 -3.006020
v 0.012321 -0.020808 -3.006020
v -0.000001 0.368472 -0.570181
v 0.184235 0.319106 -0.570181
v -0.000001 0.381152 -0.750650
v 0.190575 0.330087 -0.750650
v 0.319105 0.184236 -0.570181
v 0.330087 0.190576 -0.750650
v 0.368471 0.000000 -0.570181
v 0.381151 0.000000 -0.750650
v 0.319105 -0.184236 -0.570181
v 0.330087 -0.190576 -0.750650
v 0.184235 -0.319106 -0.570181
v 0.190575 -0.330087 -0.750650
v -0.000001 -0.368472 -0.570181
v -0.000001 -0.381152 -0.750650
v -0.000001 -0.287977 0.000000
v 0.143988 -0.249395 0.000000
v 0.249395 -0.143988 0.000000
v 0.287976 0.000000 0.000000
v 0.249395 0.143989 0.000000
v 0.143988 0.249396 0.000000
v -0.000001 0.287977 0.000000
v -0.143989 0.249396 0.000000
v -0.184237 0.319106 -0.570181
v -0.249396 0.143989 0.000000
v -0.319107 0.184236 -0.570181
v -0.287978 0.000000 0.000000
v -0.368473 0.000000 -0.570181
v -0.190577 0.330088 -0.750650
v -0.330088 0.190576 -0.750650
v -0.381153 0.000000 -0.750650
v -0.330088 -0.190576 -0.750650
v -0.319107 -0.184236 -0.570181
v -0.190577 -0.330087 -0.750650
v -0.184237 -0.319106 -0.570181
v -0.000001 -0.381152 -0.750650
v -0.000001 -0.368472 -0.570181
v -0.000001 -0.287977 0.000000
v -0.143989 -0.249395 0.000000
v -0.249396 -0.143988 0.000000
vt -0.513438 0.193240
vt -0.318236 0.307719
vt -0.513438 0.422198
vt -0.335670 0.241624
vt -0.383303 0.193240
vt -0.448370 0.175530
vt -0.448370 0.439908
vt -0.383303 0.422198
vt -0.335670 0.373814
vt -0.561070 0.373814
vt -0.578505 0.307719
vt -0.561070 0.241624
vt 0.917804 0.457627
vt 0.917804 0.254961
vt 1.000000 0.457627
vt 1.000000 0.254961
vt 0.835607 0.659521
vt 0.835607 0.457627
vt 0.917804 0.659521
vt 1.000000 0.659521
vt 0.750007 0.999500
vt 0.753228 0.834135
vt 0.832628 0.999500
vt 0.835449 0.834123
vt 0.916069 0.999500
vt 0.917712 0.834114
vt 0.999999 0.999500
vt 1.000000 0.834111
vt 0.753410 0.659521
vt 0.671056 0.834147
vt 0.671214 0.659521
vt 0.588926 0.834155
vt 0.589017 0.659521
vt 0.506820 0.834159
vt 0.506820 0.659521
vt 0.668298 0.999500
vt 0.587348 0.999500
vt 0.506821 0.999500
vt 0.424715 0.834155
vt 0.426295 0.999500
vt 0.342584 0.834147
vt 0.345342 0.999500
vt 0.260413 0.834135
vt 0.263633 0.999500
vt 0.178192 0.834123
vt 0.181013 0.999500
vt 0.096205 0.834114
vt 0.097847 0.999500
vt 0.014194 0.834111
vt 0.014193 0.999500
vt 0.424624 0.659521
vt 0.342427 0.659521
vt 0.260230 0.659521
vt 0.178034 0.659521
vt 0.096114 0.659521
vt 0.014194 0.659521
vt 0.014194 0.457627
vt 0.096114 0.457627
vt 0.014194 0.254961
vt 0.096114 0.254961
vt 0.178034 0.457627
vt 0.178034 0.254961
vt 0.260230 0.457627
vt 0.342427 0.457627
vt 0.424624 0.457627
vt 0.506820 0.457627
vt 0.589017 0.457627
vt 0.671214 0.457627
vt 0.753410 0.457627
vt 0.260230 0.254961
vt 0.342427 0.254961
vt 0.424624 0.254961
vt 0.506820 0.254961
vt 0.589017 0.254961
vt 0.671214 0.254961
vt 0.753410 0.254961
vt 0.835607 0.254961
vt 0.013640 0.254961
vt 0.013640 -0.001239
vt 0.095837 -0.001239
vt 0.178034 -0.001239
vt 0.260230 -0.001239
vt 0.342427 -0.001239
vt 0.424624 -0.001239
vt 0.506820 -0.001239
vt 0.589017 -0.001239
vt 0.671214 -0.001239
vt 0.753410 -0.001239
vt 0.835607 -0.001239
vt 0.917665 -0.001239
vt 1.000000 -0.001239
vt 1.085091 0.999500
vt 1.169687 0.999500
vt 1.999999 0.999500
vt 1.253450 0.999500
vt 1.336289 0.999500
vt 1.418361 0.999500
vt 1.500001 0.999500
vt 1.581640 0.999500
vt 1.663711 0.999500
vt 1.746550 0.999500
vt 1.830312 0.999500
vt 1.914908 0.999500
vt 0.506820 0.447740
vt 0.590153 0.447740
vt 0.506820 0.507989
vt 0.590153 0.507989
vt 0.673487 0.447740
vt 0.673487 0.507989
vt 0.756820 0.447740
vt 0.756820 0.507989
vt 0.840153 0.447740
vt 0.840153 0.507989
vt 0.923299 0.447740
vt 0.923346 0.507989
vt 1.006538 0.447740
vt 1.006538 0.507989
vt 1.006538 0.257387
vt 0.923346 0.257387
vt 0.840153 0.257387
vt 0.756820 0.257387
vt 0.673487 0.257387
vt 0.590153 0.257387
vt 0.506820 0.257387
vt 0.423487 0.257387
vt 0.423487 0.447740
vt 0.340153 0.257387
vt 0.340153 0.447740
vt 0.256820 0.257387
vt 0.256820 0.447740
vt 0.423487 0.507989
vt 0.340153 0.507989
vt 0.256820 0.507989
vt 0.173487 0.507989
vt 0.173487 0.447740
vt 0.090153 0.507989
vt 0.090153 0.447740
vt 0.006820 0.507989
vt 0.006820 0.447740
vt 0.006820 0.257387
vt 0.090153 0.257387
vt 0.173487 0.257387
vn 0.0000 0.0000 1.0000
vn 0.4954 -0.8581 -0.1352
vn 0.4992 -0.8646 -0.0579
vn -0.0000 -0.9908 -0.1352
vn 0.0000 -0.9983 -0.0579
vn 0.8487 -0.4900 -0.1988
vn 0.8581 -0.4954 -0.1352
vn 0.4900 -0.8487 -0.1988
vn -0.0000 -0.9800 -0.1989
vn 0.9426 0.0001 -0.3340
vn 0.9577 -0.0000 -0.2879
vn 0.8163 -0.4711 -0.3343
vn 0.8293 -0.4788 -0.2882
vn 0.4712 -0.8161 -0.3346
vn 0.4788 -0.8292 -0.2884
vn 0.0000 -0.9423 -0.3347
vn -0.0000 -0.9575 -0.2885
vn 0.9801 -0.0000 -0.1987
vn 0.8294 0.4789 -0.2876
vn 0.8488 0.4900 -0.1986
vn 0.4789 0.8295 -0.2874
vn 0.4901 0.8488 -0.1985
vn 0.0000 0.9578 -0.2873
vn 0.0000 0.9801 -0.1985
vn 0.8164 0.4715 -0.3336
vn 0.4714 0.8166 -0.3333
vn -0.0000 0.9429 -0.3332
vn -0.4789 0.8295 -0.2874
vn -0.4714 0.8165 -0.3333
vn -0.8294 0.4789 -0.2876
vn -0.8164 0.4715 -0.3336
vn -0.9577 -0.0000 -0.2879
vn -0.9426 0.0001 -0.3339
vn -0.8293 -0.4788 -0.2882
vn -0.8163 -0.4711 -0.3343
vn -0.4788 -0.8292 -0.2884
vn -0.4712 -0.8161 -0.3346
vn -0.4901 0.8488 -0.1985
vn -0.8488 0.4900 -0.1986
vn -0.9801 -0.0000 -0.1987
vn -0.8487 -0.4900 -0.1988
vn -0.4900 -0.8487 -0.1988
vn -0.4954 -0.8581 -0.1352
vn -0.4992 -0.8646 -0.0579
vn -0.8581 -0.4954 -0.1352
vn -0.8646 -0.4992 -0.0579
vn -0.9908 -0.0000 -0.1352
vn -0.8581 0.4954 -0.1352
vn -0.4954 0.8581 -0.1352
vn -0.0000 0.9908 -0.1352
vn 0.4954 0.8581 -0.1352
vn 0.8581 0.4954 -0.1352
vn 0.9908 -0.0000 -0.1352
vn -0.9983 -0.0000 -0.0579
vn -0.8646 0.4992 -0.0579
vn -0.4992 0.8646 -0.0579
vn 0.0000 0.9983 -0.0579
vn 0.4992 0.8646 -0.0579
vn 0.8646 0.4992 -0.0579
vn 0.9983 0.0000 -0.0579
vn 0.8646 -0.4992 -0.0579
vn -0.0000 -0.9994 0.0349
vn -0.4997 -0.8655 0.0348
vn -0.8655 -0.4997 0.0348
vn -0.9994 -0.0000 0.0348
vn -0.8655 0.4997 0.0348
vn -0.4997 0.8655 0.0348
vn 0.0000 0.9994 0.0348
vn 0.4997 0.8655 0.0348
vn 0.8655 0.4997 0.0348
vn 0.9994 -0.0000 0.0348
vn 0.8655 -0.4997 0.0348
vn 0.4997 -0.8655 0.0348
vn 0.0000 0.0000 -1.0000
vn 0.0000 0.9945 0.1044
vn 0.4973 0.8613 0.1044
vn 0.0000 0.9994 0.0349
vn 0.4997 0.8655 0.0349
vn 0.8613 0.4973 0.1044
vn 0.8655 0.4997 0.0349
vn 0.9945 -0.0000 0.1044
vn 0.9994 0.0000 0.0349
vn 0.8613 -0.4973 0.1044
vn 0.8655 -0.4997 0.0349
vn 0.4973 -0.8613 0.1044
vn 0.4997 -0.8655 0.0349
vn -0.0000 -0.9945 0.1044
vn -0.0000 -0.9902 0.1398
vn 0.4951 -0.8575 0.1398
vn 0.8575 -0.4951 0.1398
vn 0.9902 -0.0000 0.1398
vn 0.8575 0.4951 0.1398
vn 0.4951 0.8575 0.1398
vn -0.0000 0.9902 0.1398
vn -0.4951 0.8575 0.1398
vn -0.4973 0.8613 0.1044
vn -0.8575 0.4951 0.1398
vn -0.8613 0.4973 0.1044
vn -0.9902 -0.0000 0.1398
vn -0.9945 -0.0000 0.1044
vn -0.4997 0.8655 0.0349
vn -0.8655 0.4997 0.0349
vn -0.9994 0.0000 0.0349
vn -0.8655 -0.4997 0.0349
vn -0.8613 -0.4973 0.1044
vn -0.4997 -0.8655 0.0349
vn -0.4973 -0.8613 0.1044
vn -0.4951 -0.8575 0.1398
vn -0.8575 -0.4951 0.1398
usemtl Material.000001
s 1
f 1/1/1 2/2/1 3/3/1
f 4/4/1 2/2/1 5/5/1
f 2/2/1 1/1/1 5/5/1
f 5/5/1 1/1/1 6/6/1
f 7/7/1 3/3/1 8/8/1
f 3/3/1 2/2/1 8/8/1
f 8/8/1 2/2/1 9/9/1
f 10/10/1 11/11/1 3/3/1
f 3/3/1 11/11/1 1/1/1
f 11/11/1 12/12/1 1/1/1
f 13/13/2 14/14/3 15/15/4
f 14/14/3 16/16/5 15/15/4
f 17/17/6 18/18/7 19/19/8
f 18/18/7 13/13/2 19/19/8
f 19/19/8 13/13/2 20/20/9
f 13/13/2 15/15/4 20/20/9
f 21/21/10 22/22/11 23/23/12
f 22/22/11 24/24/13 23/23/12
f 23/23/12 24/24/13 25/25/14
f 24/24/13 26/26/15 25/25/14
f 25/25/14 26/26/15 27/27/16
f 27/27/16 26/26/15 28/28/17
f 28/28/17 26/26/15 20/20/9
f 20/20/9 26/26/15 19/19/8
f 26/26/15 24/24/13 19/19/8
f 19/19/8 24/24/13 17/17/6
f 24/24/13 22/22/11 17/17/6
f 17/17/6 22/22/11 29/29/18
f 22/22/11 30/30/19 29/29/18
f 29/29/18 30/30/19 31/31/20
f 30/30/19 32/32/21 31/31/20
f 31/31/20 32/32/21 33/33/22
f 32/32/21 34/34/23 33/33/22
f 33/33/22 34/34/23 35/35/24
f 22/22/11 21/21/10 30/30/19
f 21/21/10 36/36/25 30/30/19
f 30/30/19 36/36/25 32/32/21
f 36/36/25 37/37/26 32/32/21
f 32/32/21 37/37/26 34/34/23
f 37/37/26 38/38/27 34/34/23
f 34/34/23 38/38/27 39/39/28
f 38/38/27 40/40/29 39/39/28
f 39/39/28 40/40/29 41/41/30
f 40/40/29 42/42/31 41/41/30
f 41/41/30 42/42/31 43/43/32
f 42/42/31 44/44/33 43/43/32
f 43/43/32 44/44/33 45/45/34
f 44/44/33 46/46/35 45/45/34
f 45/45/34 46/46/35 47/47/36
f 46/46/35 48/48/37 47/47/36
f 47/47/36 48/48/37 49/49/17
f 48/48/37 50/50/16 49/49/17
f 34/34/23 39/39/28 35/35/24
f 35/35/24 39/39/28 51/51/38
f 39/39/28 41/41/30 51/51/38
f 51/51/38 41/41/30 52/52/39
f 41/41/30 43/43/32 52/52/39
f 52/52/39 43/43/32 53/53/40
f 43/43/32 45/45/34 53/53/40
f 53/53/40 45/45/34 54/54/41
f 45/45/34 47/47/36 54/54/41
f 54/54/41 47/47/36 55/55/42
f 47/47/36 49/49/17 55/55/42
f 49/49/17 56/56/9 55/55/42
f 56/56/9 57/57/4 55/55/42
f 55/55/42 57/57/4 58/58/43
f 57/57/4 59/59/5 58/58/43
f 59/59/5 60/60/44 58/58/43
f 58/58/43 60/60/44 61/61/45
f 60/60/44 62/62/46 61/61/45
f 55/55/42 58/58/43 54/54/41
f 58/58/43 61/61/45 54/54/41
f 54/54/41 61/61/45 53/53/40
f 61/61/45 63/63/47 53/53/40
f 53/53/40 63/63/47 52/52/39
f 63/63/47 64/64/48 52/52/39
f 52/52/39 64/64/48 51/51/38
f 64/64/48 65/65/49 51/51/38
f 51/51/38 65/65/49 35/35/24
f 65/65/49 66/66/50 35/35/24
f 35/35/24 66/66/50 33/33/22
f 66/66/50 67/67/51 33/33/22
f 33/33/22 67/67/51 31/31/20
f 67/67/51 68/68/52 31/31/20
f 31/31/20 68/68/52 29/29/18
f 68/68/52 69/69/53 29/29/18
f 29/29/18 69/69/53 17/17/6
f 69/69/53 18/18/7 17/17/6
f 61/61/45 62/62/46 63/63/47
f 62/62/46 70/70/54 63/63/47
f 63/63/47 70/70/54 64/64/48
f 70/70/54 71/71/55 64/64/48
f 64/64/48 71/71/55 65/65/49
f 71/71/55 72/72/56 65/65/49
f 65/65/49 72/72/56 66/66/50
f 72/72/56 73/73/57 66/66/50
f 66/66/50 73/73/57 67/67/51
f 73/73/57 74/74/58 67/67/51
f 67/67/51 74/74/58 68/68/52
f 74/74/58 75/75/59 68/68/52
f 68/68/52 75/75/59 69/69/53
f 75/75/59 76/76/60 69/69/53
f 69/69/53 76/76/60 18/18/7
f 76/76/60 77/77/61 18/18/7
f 18/18/7 77/77/61 13/13/2
f 77/77/61 14/14/3 13/13/2
f 78/78/5 79/79/62 60/60/44
f 79/79/62 80/80/63 60/60/44
f 60/60/44 80/80/63 62/62/46
f 80/80/63 81/81/64 62/62/46
f 62/62/46 81/81/64 70/70/54
f 81/81/64 82/82/65 70/70/54
f 70/70/54 82/82/65 71/71/55
f 82/82/65 83/83/66 71/71/55
f 71/71/55 83/83/66 72/72/56
f 83/83/66 84/84/67 72/72/56
f 72/72/56 84/84/67 73/73/57
f 84/84/67 85/85/68 73/73/57
f 73/73/57 85/85/68 74/74/58
f 85/85/68 86/86/69 74/74/58
f 74/74/58 86/86/69 75/75/59
f 86/86/69 87/87/70 75/75/59
f 75/75/59 87/87/70 76/76/60
f 87/87/70 88/88/71 76/76/60
f 76/76/60 88/88/71 77/77/61
f 88/88/71 89/89/72 77/77/61
f 77/77/61 89/89/72 14/14/3
f 89/89/72 90/90/73 14/14/3
f 14/14/3 90/90/73 16/16/5
f 90/90/73 91/91/62 16/16/5
f 92/92/74 93/93/74 94/94/74
f 93/93/74 95/95/74 94/94/74
f 95/95/74 96/96/74 94/94/74
f 96/96/74 97/97/74 94/94/74
f 97/97/74 98/98/74 94/94/74
f 98/98/74 99/99/74 94/94/74
f 99/99/74 100/100/74 94/94/74
f 100/100/74 101/101/74 94/94/74
f 101/101/74 102/102/74 94/94/74
f 94/94/74 102/102/74 103/103/74
f 104/104/75 105/105/76 106/106/77
f 106/106/77 105/105/76 107/107/78
f 105/105/76 108/108/79 107/107/78
f 107/107/78 108/108/79 109/109/80
f 108/108/79 110/110/81 109/109/80
f 109/109/80 110/110/81 111/111/82
f 110/110/81 112/112/83 111/111/82
f 111/111/82 112/112/83 113/113/84
f 112/112/83 114/114/85 113/113/84
f 113/113/84 114/114/85 115/115/86
f 114/114/85 116/116/87 115/115/86
f 115/115/86 116/116/87 117/117/62
f 118/118/88 116/116/87 119/119/89
f 116/116/87 114/114/85 119/119/89
f 119/119/89 114/114/85 120/120/90
f 114/114/85 112/112/83 120/120/90
f 120/120/90 112/112/83 121/121/91
f 112/112/83 110/110/81 121/121/91
f 121/121/91 110/110/81 122/122/92
f 110/110/81 108/108/79 122/122/92
f 122/122/92 108/108/79 123/123/93
f 108/108/79 105/105/76 123/123/93
f 123/123/93 105/105/76 124/124/94
f 105/105/76 104/104/75 124/124/94
f 124/124/94 104/104/75 125/125/95
f 104/104/75 126/126/96 125/125/95
f 125/125/95 126/126/96 127/127/97
f 126/126/96 128/128/98 127/127/97
f 127/127/97 128/128/98 129/129/99
f 128/128/98 130/130/100 129/129/99
f 106/106/77 131/131/101 104/104/75
f 104/104/75 131/131/101 126/126/96
f 131/131/101 132/132/102 126/126/96
f 126/126/96 132/132/102 128/128/98
f 132/132/102 133/133/103 128/128/98
f 128/128/98 133/133/103 130/130/100
f 133/133/103 134/134/104 130/130/100
f 130/130/100 134/134/104 135/135/105
f 134/134/104 136/136/106 135/135/105
f 135/135/105 136/136/106 137/137/107
f 136/136/106 138/138/62 137/137/107
f 138/138/62 139/139/87 137/137/107
f 139/139/87 140/140/88 137/137/107
f 140/140/88 141/141/108 137/137/107
f 137/137/107 141/141/108 135/135/105
f 141/141/108 142/142/109 135/135/105
f 135/135/105 142/142/109 130/130/100
f 142/142/109 129/129/99 130/130/100
